<?xml version="1.0" encoding="utf-8"?>
<!-- Generator: Adobe Illustrator 19.0.0, SVG Export Plug-In . SVG Version: 6.00 Build 0)  -->
<svg version="1.1" id="Layer_1" xmlns="http://www.w3.org/2000/svg" xmlns:xlink="http://www.w3.org/1999/xlink" x="0px" y="0px"
	 viewBox="0 0 932.2 560" style="enable-background:new 0 0 932.2 560;" xml:space="preserve">
<style type="text/css">
	.st0{fill:#4268FF;}
	.st1{fill:#FFA142;}
</style>
<path id="XMLID_144_" class="st0" d="M0,0c41.6,36.1,91,52.8,142.6,63.7c33.6,7.1,67.6,11.9,101.4,18.1c10.7,2,21.6,4,31.8,7.6
	c22.7,7.8,35.5,26.5,36.3,50.5c0.4,12.8-1.8,25.1-5.8,37.2c-7.6,23.5-10.2,47.5-7.3,72c0.8,6.6,2.8,13,4.2,19.5
	c0.6,0.1,1.2,0.1,1.8,0.2c0.5-1.6,1.7-3.5,1.4-4.9c-7.1-27.8-4.1-55.2,3.1-82.4c1.9-7.1,4.6-14,5.7-21.2c1.8-11.9,3.4-23.9,0-35.9
	c0.3-0.1,0.6-0.2,0.9-0.3c5.2,13.3,10.7,26.6,15.6,40c5,13.5,9.4,27.2,14.7,40.8c0-1.2,0.2-2.5,0-3.6c-1.9-11.7-3.1-23.5-1.4-35.4
	c3.1-21.6,15.6-35.3,35.7-42.5c14.1-5,28.8-6.6,43.6-7.5c2.4-0.2,3.9-1,5.4-2.8c2.5-2.9,5.2-5.8,8.4-7.9c5.8-3.9,11.4-8,14.7-15.7
	c1.4,5.3,0.1,9.1-1.8,12.7c-3.5,6.5-7.5,12.8-10.7,19.5c-1.2,2.6-1.7,6-1.3,8.9c2.4,16.4,5.2,32.8,8,49.1c1,5.8,2.4,11.5,3.7,17.3
	c1.1,4.9-2.3,9.3-8.2,10.5c-2.6,0.5-5.2,1.3-7.9,1.4c-1.2,0-2.7-1.2-3.5-2.2c-1.1-1.3-1.6-3.2-2.7-4.6c-3.5-4.2-6.3-3.9-10.6-0.6
	c-3.3,2.5-3.2,5.1-2.3,8.3c1.1,3.8,2.2,7.6,3.2,11.5c1.1,4.2,2.5,8.4,3.1,12.7c0.8,5.2,0.6,5.2,6,5.2c5,0,10.1,0,15.1,0.1
	c5.3,0.1,9.2,2.5,11.2,7.4c2,5.1,1.2,9.8-2.7,13.9c-0.9,0.9-1.3,2.3-1.6,3.6c-0.3,1.6-0.3,3.3-0.4,4.9c-5.1,0-9.8,0-14.5,0
	c-15.3-0.2-30.7-1-46-0.4c-40.4,1.5-70.2,21.6-92.5,54.2c-0.7,1-1.2,1.9-1.9,2.9c-0.1,0.1-0.2,0.2-0.6,0.5
	c-4.1-5.9-8.3-11.7-12.1-17.8c-0.7-1.1-0.4-3.2,0-4.7c2.6-8.8,7.2-16.4,12.8-23.6c0.8-1,1.6-2,2.5-3.3c-5.6-6.4-9.7-13.6-11.9-21.8
	c-3.4-12.5-2.3-25.1-0.3-37.6c2.6-16.6,6.1-33.2,8.1-49.9c3.2-25.9-7.4-45.3-29.6-58.5c-12.4-7.4-26.3-10.3-40.4-12.1
	c-24.4-3.1-48.8-5.6-73.2-8.7c-30.3-3.8-60.4-8.7-88.8-20.8c-16.2-6.9-30.8-16.1-42.4-29.6C9.3,27.2,3.3,14.7,0,0z M401.4,150.8
	c-0.2-0.7-0.3-1.7-0.6-1.8c-6.2-1.5-8.9-7-12.9-11c-3.4-3.4-7.3-5-12.2-3.4c-1.4,0.5-3.3,0.1-4.8-0.5c-3.6-1.3-4.6-0.7-4.5,3.2
	c0.1,9.4,7.1,14.8,16.8,12.7c5.9-1.3,11.9-4,17.4,1C400.5,151.1,400.7,151,401.4,150.8z M408.5,195.7c0.2-0.4,0.4-0.8,0.6-1.2
	c-10.3-10.3-14.1-22.4-10.2-36.4c-2.7-1.5-4.1-0.8-4.6,1.9c-2.8,13.4,0.7,24.9,10.3,34.5C405.4,195.4,407.2,195.3,408.5,195.7z
	 M423,164.8c3.5,0,6.3-2.8,6.3-6.4c-0.1-3.4-2.7-6.1-6.1-6.3c-3.4-0.1-6.5,2.9-6.5,6.3C416.6,161.8,419.5,164.8,423,164.8z"/>
<path id="XMLID_139_" class="st0" d="M629.3,268.9c1.6-7.7,3.8-15.1,4.6-22.7c2.5-23.9-0.5-47.3-7.9-70.1
	c-4.6-14.1-7.1-28.5-4.7-43.3c3.8-24.2,18-39.6,41.5-45.5c15.1-3.8,30.5-6.2,45.8-8.7c45.5-7.3,91-14.5,134.8-29.4
	c29.6-10.1,57.5-23.3,81.9-43.1c2.1-1.7,4.2-3.4,6.3-5.1c0.1-0.1,0.2,0,0.7-0.1c-0.1,0.9-0.1,1.7-0.3,2.5c-6.4,25-21.8,43-43.7,55.9
	C869,70.6,848,77.5,826.3,81.2c-26.2,4.5-52.7,7.6-79.1,11.1c-20,2.6-40.2,3.9-59.8,9.3c-12.8,3.5-24.2,9.6-33.3,19.3
	c-12.9,13.8-17,30.4-14.4,48.6c2.4,16.9,5.8,33.7,8.4,50.6c1.7,10.6,2.3,21.3,0,31.9c-1.9,9.3-6,17.5-12.6,24.6
	c2.2,3.1,4.8,5.9,6.5,9.1c3.3,6.1,6.1,12.4,8.9,18.7c0.5,1.1,0.5,3-0.1,3.9c-3.8,5.9-7.9,11.7-12.2,17.9c-0.9-1.4-1.6-2.4-2.3-3.4
	c-15.7-23.1-35.8-40.7-62.9-49.3c-18.1-5.7-36.7-6-55.5-5.3c-11.4,0.4-22.8,0.9-34.8,1.3c0.4-4.8-1.5-8.2-3.9-11.8
	c-5.2-7.6,0.4-17.9,9.6-18.5c5.4-0.4,10.8-0.1,16.2-0.2c1.5,0,3.1,0,4.3,0c2.8-11,5.4-21.5,8.2-32c1.3-4.8-3.3-5.4-5.4-7.7
	c-0.8-0.9-4.3-0.2-5.8,0.8c-1.9,1.3-3.3,3.5-4.4,5.6c-1.3,2.5-2.5,4-5.7,2.5c-1.6-0.8-3.8-0.5-5.7-0.8c-7.5-1.2-9.9-6.1-7.9-13.3
	c2.1-7.7,3-15.6,4.3-23.5c2.2-13.5,4.3-26.9,6.6-40.4c0.7-4-0.5-7.1-2.5-10.5c-4-7-7.7-14.1-11.1-21.4c-1.1-2.3-0.8-5.2-0.6-8.1
	c3.6,7.8,10.6,11.8,17,16.4c1.5,1,3.1,2.2,3.9,3.7c3,5.5,8.1,5.7,13.4,6.1c14,0.9,27.9,2.9,41.1,8.3c21.4,8.7,32.2,25,33.1,47.7
	c0.3,9.3-1.2,18.7-1.9,28.1c-0.1,1.4,0,2.8,0,4.4c10.1-27.5,20.1-54.6,30.1-81.7c0.2,0.1,0.4,0.2,0.6,0.3
	c-0.5,6.2-1.7,12.5-1.4,18.7c0.4,11.1,1.9,22.2,5.5,32.9c8,23.7,10.7,48.2,8.2,73.1c-0.5,5.1-1.8,10.1-3,15.1
	C625.4,265.8,625.9,267.4,629.3,268.9z M530.9,149.6c0.2,0.4,0.4,0.9,0.6,1.3c0.7-0.1,1.8,0.1,2.2-0.3c3.3-3.5,7.2-2.6,11.1-1.6
	c1.7,0.4,3.5,0.9,5.2,1.3c9.3,1.7,15.7-3.2,16.4-12.6c0.3-3.8-1.1-4.8-4.7-3.4c-1.3,0.5-2.9,1-4,0.6c-6.7-2.3-11.1,0.7-15,5.6
	c-2.8,3.5-5.5,7.2-10.3,8.3C531.9,148.8,531.4,149.3,530.9,149.6z M523.6,194.4c0.1,0.4,0.3,0.9,0.4,1.3c1.4-0.3,3.2-0.2,4-1.1
	c9.5-9.7,13.2-21.1,10.3-34.6c-0.6-2.7-1.7-3.5-4.5-2C537.3,172,534.1,184.2,523.6,194.4z M509.6,152.1c-3.4,0.1-6.4,3.2-6.3,6.5
	c0.1,3.4,3.2,6.3,6.6,6.1c3.4-0.1,6-2.9,6-6.3C515.9,155,513.1,152.1,509.6,152.1z"/>
<path id="XMLID_138_" class="st1" d="M295.7,368c6.1,0,12.1,0.1,18.2,0c2.7-0.1,3.5,1,3.6,3.6c1.3,67.9,49.5,126.2,115,141.3
	c83.4,19.2,164.2-34.3,180.2-116.6c1.6-8.2,2.2-16.5,2.9-24.8c0.2-2.7,1.1-3.5,3.7-3.5c12.1,0.1,24.2,0.1,36.3,0
	c2.8,0,3.6,1.1,3.5,3.7c-0.1,6.1-0.2,12.1,0,18.2c0.1,2.8-0.8,4.2-3.5,5c-6.8,2.1-13.4,4.6-20.1,6.7c-3,0.9-5,2.3-5.3,5.7
	c-0.2,2.3-0.9,4.6-1.8,6.7c-1.8,4.2-0.6,7.2,2.5,10.3c4.6,4.7,8.7,9.9,13.1,14.7c1.8,1.9,1.7,3.4,0.5,5.4
	c-7.7,13.1-15.3,26.3-22.8,39.5c-1.1,2-2.2,2.6-4.6,2.1c-7.4-1.6-14.9-2.8-22.3-4.5c-2.5-0.6-4.2,0-5.8,1.8c-1.7,1.9-3.4,4-5.4,5.5
	c-3.5,2.6-4.1,5.6-3.1,9.7c1.7,6.6,2.9,13.3,4,20c0.2,1.3-0.7,3.7-1.8,4.3c-13.4,8-26.9,15.7-40.5,23.4c-1,0.6-3.2,0.1-4.2-0.7
	c-5.9-4.8-11.6-9.9-17.2-15c-1.8-1.7-3.6-2.3-5.9-1.3c-0.5,0.2-1,0.5-1.5,0.5c-9.9,0.3-14.1,6.3-15.9,15.2
	c-0.9,4.3-2.5,8.4-4.3,12.4c-0.5,1.3-2.5,2.7-3.8,2.7c-15.5,0.2-30.9,0.2-46.4,0c-1.3,0-3.2-1.6-3.7-2.9c-2.6-7-5-14.1-7.3-21.2
	c-0.8-2.3-2.2-3.2-4.4-4.2c-9.4-4.3-17-2.6-23.6,5.5c-2.5,3.1-6,5.3-8.9,8c-1.7,1.6-3.1,2-5.4,0.7c-13.2-7.8-26.5-15.4-39.8-23
	c-1.9-1.1-2.4-2.2-2-4.3c1.5-7.3,2.8-14.6,4.4-21.9c0.6-2.7-0.2-4.4-1.8-6.6c-5.8-7.9-12.7-10.6-22.1-6.9c-4.1,1.6-8.8,2-13.2,2.6
	c-1.2,0.2-3.3-0.6-3.9-1.6c-7.9-13.3-15.5-26.7-23.3-40.1c-1.2-2-0.9-3.4,0.6-5.1c4.8-5.4,9.4-11,14.3-16.2c2.3-2.4,3-4.6,1.6-7.6
	c-0.2-0.3-0.4-0.7-0.4-1.1c-0.3-9.2-5.7-13.4-14.2-15c-4.5-0.9-8.9-2.7-13.1-4.5c-1.3-0.5-2.8-2.4-2.9-3.7
	c-0.3-6.6-0.1-13.1-0.2-19.7c0-2.3,0.9-3.2,3.2-3.2C283.3,368.1,289.5,368,295.7,368z"/>
<path id="XMLID_137_" class="st1" d="M374.7,325.2c1.7-0.2,2.5-0.5,3.4-0.5c18-0.6,36-1,54-1.7c16.1-0.6,32.1-1.4,48.2-2.2
	c3.8-0.2,7.2,0.6,10.6,2.5c28.2,15.7,56.5,31.3,84.8,46.9c1.1,0.6,2.2,1.3,4.3,2.5c-12.3,1.4-23.6,2.8-35.5,4.2
	c0.5,1.5,0.8,2.6,1.3,3.7c3.6,7.1,6.1,14.4,6.8,22.4c0.2,2.5,1.1,4.2,3.8,5.6c7.8,3.8,8.3,13.9,1.1,18.5c-2.7,1.7-3,3.2-2.1,6
	c1.8,5.6,3.2,11.3,5.1,18.2c-11.1-3-21.5-5.9-32.4-8.9c6-5.2,11.6-9.9,17.2-14.7c-0.7-1-1.1-1.6-1.6-2.2c-5.3-7.1-3.1-15,5.3-17.9
	c2-0.7,2.8-1.5,2.5-3.5c-1.1-8.5-3.4-16.6-7.6-24.1c-1.2-2.2-2.7-2.8-5-2.5c-12.2,1.4-24.5,2.9-36.7,4.2c-11.5,1.3-23,2.6-34.5,3.8
	c-1,0.1-2.3-0.4-3.2-1c-29.3-19.2-58.6-38.4-87.8-57.6C376.1,326.5,375.7,326.1,374.7,325.2z"/>
<path id="XMLID_136_" class="st1" d="M418.6,365.2c6.8,4.5,13.7,8.9,20.6,13.4c6.7,4.4,13.4,8.6,20,13.2c3.3,2.4,6.7,2.6,10.6,2.1
	c14-1.7,28-3.2,42-4.8c3,15.5-6,40.1-29.3,50.8c-22,10.2-48,3.3-62.8-16.4C405.8,405.3,407.6,379.2,418.6,365.2z"/>
<path id="XMLID_135_" class="st0" d="M240.7,112.3c-8.3,0-16.7-0.6-24.9,0.1c-17.3,1.6-34.5,3.8-51.8,5.8
	c-20.8,2.4-41.5,4.4-62.2-0.4c-24.9-5.7-42.9-20.8-56.5-41.9c-0.2-0.3-0.2-0.6-0.4-1.5c1.7,0.8,3.1,1.4,4.4,2.1
	C76.6,90.5,105.6,98,136,99.5c19.8,1,39.6,1.4,59.4,2.4c14.4,0.7,28.6,3.2,42.3,8.1c1,0.4,2,0.8,3.1,1.2
	C240.8,111.6,240.7,111.9,240.7,112.3z"/>
<path id="XMLID_134_" class="st0" d="M888.6,74.2c-11.6,18.2-25.5,32.1-44.9,39.8c-16,6.3-32.8,8-49.7,6.5
	c-20.4-1.8-40.6-4.7-61-6.6c-12.3-1.2-24.7-1.5-37-2.1c-1.2-0.1-2.5,0-3.7,0c-0.1-0.4-0.2-0.7-0.2-1.1c7.1-1.9,14.1-4.5,21.4-5.5
	c12.8-1.8,25.8-3.1,38.7-3.9c17.7-1.1,35.5-1.1,53.2-2.4c27.7-2,53.8-9.8,78.5-22.3C885.1,75.7,886.4,75.2,888.6,74.2z"/>
<path id="XMLID_133_" class="st0" d="M846,125.1c-15.9,19.7-36.2,30-61.8,28.7c-13.3-0.6-26-3.9-38.3-8.5
	c-27.1-10.1-54.7-17.2-84.3-17.7c3.2-1.7,6.2-3.7,9.5-5c12.1-4.8,24.7-4.8,37.3-2.7c18.6,3.2,37.1,7.3,55.7,10.5
	c27.3,4.7,54.3,4.2,80.7-5.4C845.2,125,845.6,125.1,846,125.1z"/>
<path id="XMLID_132_" class="st0" d="M86.8,125.3c6.4,1.7,12.7,3.7,19.2,5c23.6,4.8,47.1,3.5,70.5-1.1c15.9-3.1,31.7-6.5,47.7-9.2
	c12.4-2.1,24.9-2.1,36.9,2.6c3.4,1.3,6.5,3.3,9.7,5c-0.1,0.5-0.2,1-0.4,1.5c-5.2,0-10.4-0.3-15.6,0.1c-21.8,1.7-42.8,7-63.3,14.6
	c-13.1,4.9-26.5,9-40.7,10c-22.5,1.5-41.9-4.9-57.7-21.3c-2.2-2.3-4.8-4.2-7.2-6.3C86.3,125.8,86.6,125.5,86.8,125.3z"/>
<path id="XMLID_131_" class="st0" d="M284,148.7c-1.2,0-2.5,0.1-3.7,0c-13.1-1.2-25.1,2-36.9,7.5c-14.6,6.9-29.5,13.4-44.6,19.1
	c-11.7,4.4-24,6.9-36.7,6.6c-13-0.3-24.2-4.7-31.7-16.1c-0.4-0.6-0.8-1.3-1.2-2c-0.1-0.2,0-0.5-0.1-0.8c5.4,1.5,10.8,3.1,16.2,4.3
	c9.9,2.2,19.6,0.4,28.9-2.6c14.4-4.6,28.8-9.5,43-14.8c16.2-6,32.5-10.8,49.9-10.3c3.6,0.1,7.5,0.9,10.8,2.3
	c2.6,1.1,4.5,3.6,6.7,5.5C284.4,148,284.2,148.3,284,148.7z"/>
<path id="XMLID_130_" class="st0" d="M648.5,148.8c1.3-4.4,4.2-6.8,7.7-7.3c6.3-1,12.8-1.9,19.1-1.4c14.5,1.2,28.5,5.3,42,10.9
	c17.6,7.3,35.5,13.6,54.4,16.8c9.7,1.7,18.9-0.4,28-3.6c1.3-0.5,2.5-0.9,4.6-1.6c-6.2,11.3-15.1,17.1-26.7,18.8
	c-15.9,2.3-31.1-1.4-45.7-6.7c-13.4-4.8-26.5-10.6-39.3-16.9c-13.3-6.5-26.7-10.6-41.6-8.9C650.3,148.8,649.7,148.8,648.5,148.8z"/>
<path id="XMLID_129_" class="st0" d="M162.9,192.4c4,0.5,7.9,1.1,11.9,1.6c8.7,1.3,17.3,0.4,25.4-3.1c15-6.4,29.9-13.2,44.8-19.8
	c6.5-2.9,12.8-6,19.5-8.3c4.4-1.5,9.3-2.1,13.9-2.1c2.7,0,5.4,2,7.9,3.7c-8.4,1.7-14.5,6.8-21,11c-11.3,7.4-22.3,15.2-33.8,22.3
	c-10.4,6.4-21.7,11.2-34.1,12.7C183.3,212.1,168.2,204.3,162.9,192.4z"/>
<path id="XMLID_128_" class="st0" d="M647,164c1.4-2.3,4.4-3.8,7.7-3.4c5.2,0.5,10.6,0.9,15.3,2.9c16.6,7,32.7,15,49.3,22
	c8.2,3.5,16.8,6.7,25.6,8.1c7.2,1.2,14.8-0.5,22.2-1c0.9-0.1,1.7-0.2,2.7-0.4c-5.2,12-20.4,19.7-34.4,18
	c-12.4-1.5-23.6-6.3-34.1-12.7c-8.6-5.1-16.9-10.9-25.2-16.4c-4.4-2.9-8.6-6.2-13.1-8.9C657.8,169.4,652.4,166.8,647,164z"/>
<path id="XMLID_127_" class="st0" d="M234.6,239.6c10.4-4.1,19-9.8,26-17.4c7-7.5,13.3-15.6,19.6-23c-4.2,23.3-7.1,47.3,2.6,71.7
	C266.5,260.3,250.9,250.2,234.6,239.6z"/>
<path id="XMLID_126_" class="st0" d="M652.8,199.2c12,16.8,24.9,32.3,45.2,40.5c-16,10.4-31.5,20.5-48.2,31.3
	C659.5,246.7,656.8,223,652.8,199.2z"/>
<path id="XMLID_125_" class="st0" d="M199.9,220c14.7,2,27.2-3.5,38.6-12.3c8.7-6.8,17.2-14,25.9-20.8c4.2-3.2,8.6-6.2,13.1-8.8
	c2.4-1.4,5.4-1.8,8.1-2.6c0.2,0.3,0.3,0.7,0.5,1c-3.8,4.6-7.6,9.2-11.5,13.8c-6.1,7.3-11.7,15.1-18.6,21.6
	c-6.6,6.2-14.2,11.5-22,16.2c-11.1,6.7-25.9,1-34.3-7.6C199.6,220.5,199.8,220.4,199.9,220z"/>
<path id="XMLID_124_" class="st0" d="M733.2,220.2c-9.8,10.3-25.2,14.2-35.2,7.6c-7.7-5.1-15.7-10.1-22.1-16.7
	c-10.5-10.9-19.7-22.9-29.5-34.5c0.2-0.4,0.4-0.9,0.7-1.3c3.1,1.1,6.6,1.7,9.3,3.4c6.8,4.6,13.4,9.6,19.9,14.6
	c7.3,5.6,14.3,11.4,21.6,16.9c10,7.4,21.1,11,33.6,9.9C732,220.2,732.4,220.2,733.2,220.2z"/>
<path id="XMLID_123_" class="st0" d="M653.1,316.9c0.3,10.1-2.1,19.4-6.7,28.9c-1.7-4.8-3.2-8.9-4.2-11.8
	C646.1,327.9,649.5,322.6,653.1,316.9z"/>
<path id="XMLID_122_" class="st0" d="M280.5,317.4c1.4,2.8,2.5,5.8,4.2,8.4c1.7,2.5,3.9,4.7,6.1,7.4c-1.3,3.8-2.8,8-4.5,12.7
	C281.8,336.7,279.3,327.5,280.5,317.4z"/>
<rect id="XMLID_265_" x="0" y="-62.2" class="st0" width="30.2" height="30.2"/>
<rect id="XMLID_267_" x="39.8" y="-62.2" class="st1" width="30.2" height="30.2"/>
</svg>
